<svg width="794" height="309" viewBox="0 0 794 309" fill="none" xmlns="http://www.w3.org/2000/svg">
<path fill-rule="evenodd" clip-rule="evenodd" d="M114.291 135.5V153C114.191 163.8 114.591 171.1 115.291 172C116.091 173.099 116.49 173.199 116.79 172.2C116.99 171.5 117.691 171 118.19 171C118.791 170.999 120.89 169.699 122.989 168.2C124.989 166.7 128.489 164.6 130.589 163.5C133.288 162.1 136.389 161.499 140.088 161.599C143.787 161.7 147.087 162.499 149.687 163.899C151.886 165.099 154.587 166.6 155.687 167.3C156.786 167.9 157.886 168.7 158.186 169C158.486 169.3 159.886 170.3 161.485 171.3C162.985 172.2 164.385 172.6 164.686 172.2C164.985 171.797 164.885 167.197 164.585 162C164.085 153.8 164.286 152 165.985 149C166.985 147.1 169.385 144.7 171.284 143.7C173.984 142.4 177.286 142 199.182 142L202.681 145.2C205.08 147.4 206.58 149.9 207.28 153C207.88 155.5 208.58 158.8 208.88 160.5C209.18 162.1 210.48 169.8 211.78 177.5C213.58 188.298 213.879 191.699 212.88 192.2C212.18 192.6 210.08 193 208.181 193C204.681 193 204.68 192.9 203.48 187.3C202.781 184.1 201.581 178.7 200.981 175.2C199.982 170.401 199.281 169 197.981 169C196.582 169 196.082 170.1 195.582 174.2C195.282 177.101 195.281 194.801 195.481 213.5C195.681 232.199 196.282 248.798 196.682 250.5C197.281 252.899 196.881 254.1 194.582 256.899C192.982 258.799 188.982 261.6 185.683 263.2C182.384 264.699 179.385 265.999 178.983 266C178.483 266 176.684 266.6 174.984 267.399C173.185 268.099 168.085 269.599 163.686 270.599C157.386 272.099 151.786 272.5 137.688 272.5C123.59 272.4 118.09 271.999 112.19 270.599C108.092 269.6 103.393 268.2 101.692 267.5C100.093 266.8 96.4929 265.4 93.6934 264.5C90.994 263.6 86.8943 262.6 84.6943 262.3C81.3949 261.8 80.1937 262.2 77.6943 264.2C74.6952 266.7 74.695 266.7 76.3945 270.099C77.2944 271.999 79.0947 274.5 80.3945 275.7C81.6945 276.9 84.4938 278.9 86.6934 280C88.8931 281.2 93.3929 282.899 96.6924 283.899C99.992 284.899 104.992 286.399 107.691 287.099C111.191 288.099 118.991 288.5 133.688 288.5C150.686 288.5 155.986 288.1 161.686 286.7C165.585 285.7 172.784 283.5 177.684 281.8C182.683 280.1 188.683 277.9 191.183 276.8C193.683 275.799 199.982 272.8 205.181 270.2C210.38 267.7 218.479 263.299 223.179 260.399C227.878 257.599 234.178 253.499 237.277 251.399C240.277 249.199 246.076 245 249.976 242C253.975 239 261.475 232.1 266.674 226.7C271.873 221.401 276.372 217.401 276.673 218C276.972 218.501 275.172 223.001 272.673 228C270.173 232.899 266.974 238.9 265.474 241.2C264.074 243.6 260.874 248.2 258.375 251.5C255.875 254.8 249.776 261.6 244.776 266.7C239.777 271.8 232.078 278.599 227.679 281.8C223.28 284.999 218.08 288.6 216.18 289.7C214.28 290.9 209.08 293.6 204.681 295.8C200.282 297.999 194.183 300.499 191.183 301.399C188.183 302.399 184.783 303.5 183.683 304C182.582 304.4 177.683 305.6 172.685 306.599C165.785 308.099 159.285 308.5 144.188 308.5C128.89 308.5 122.99 308.1 116.69 306.7C112.291 305.7 107.792 304.5 106.691 304C105.592 303.6 102.692 302.7 100.192 302C97.6927 301.3 92.0928 298.999 87.6934 296.899C83.2944 294.799 77.8955 292 75.6953 290.7C73.4956 289.5 68.5958 286.3 64.6963 283.8C60.8968 281.2 53.8977 275.4 49.1982 270.8C44.499 266.2 38.7996 260.5 36.5996 258C34.2999 255.5 31.3999 251.7 30 249.5C28.6002 247.3 26.9005 244.799 26.1006 243.899C25.3007 243.099 23.8007 240.799 22.8008 238.899C21.7007 236.999 18.5011 230.799 15.6016 225C12.8019 219.2 9.10178 210.2 7.50195 205C5.80221 199.8 4.00269 193.2 3.30273 190.5C2.70281 187.7 1.80304 181.7 1.20312 177C0.703197 172.3 0.202155 164.799 0.202148 152L7.50195 158.5C11.4005 161.999 14.9995 164.898 15.501 165C15.9019 165.001 17.7019 166 19.501 167.3C21.201 168.6 29.2002 172.9 37.1992 176.8C45.1982 180.6 53.6976 184.7 56.1973 185.8C58.6969 186.9 61.7965 188.1 63.1963 188.5C64.5966 188.9 68.8961 190.8 72.6953 192.599C76.5947 194.399 81.0941 195.9 85.6934 196L84.8936 189.7C84.4936 186.3 84.1943 177.099 84.1943 155H81.6943C80.2949 155 78.9954 155.5 78.7949 156.2C78.5949 156.901 78.0942 159.7 77.6943 162.5C77.3944 165.2 76.6943 168.8 76.1943 170.5C75.7944 172.1 75.0949 174.7 74.7949 176.2C74.1951 178.8 73.894 179 69.9951 178.7C65.796 178.5 65.6959 178.399 65.7959 175C65.7961 173.099 67.2961 163.799 69.0957 154.5C71.2287 143.167 73.0287 136.4 74.4951 134.2C75.5951 132.4 77.9951 130.2 79.5947 129.5C81.6949 128.5 86.5959 128.1 106.191 128L114.291 135.5ZM152.886 176C152.685 176 151.986 176.5 151.187 177.2C150.087 178.2 149.786 182.5 149.986 199.9C150.086 211.8 150.586 222 150.986 222.6C151.387 223.201 153.086 224.4 154.686 225.4C156.385 226.3 160.885 228.1 164.685 229.4C168.583 230.7 171.982 231.599 172.483 231.4C172.883 231.2 173.184 220.8 173.184 208.2V185.5C168.184 183 164.484 181.3 161.685 180.1C158.985 178.9 155.885 177.5 154.985 176.9C153.986 176.4 153.086 176 152.886 176ZM126.188 176.1C125.887 176.102 123.688 177.201 121.189 178.6C118.69 179.9 115.391 181.3 113.891 181.6C112.391 181.9 110.191 183.4 109.091 184.8C108.431 185.708 107.975 186.582 107.674 187.787C107.862 186.675 108.131 185.876 108.491 185.3C109.291 184 109.591 183 109.291 183C108.891 183 107.991 183.5 107.191 184.2C106.092 185.1 105.791 187.9 105.991 195.7C106.091 201.399 106.491 206.199 106.891 206.4C107.204 206.526 107.399 204.956 107.452 202.46C107.601 204.132 107.796 205.308 107.991 205.6C108.392 206.201 110.091 207.3 111.69 208.2C113.39 209 116.29 210.4 118.189 211.3C120.089 212.2 122.889 213.4 124.489 214C126.789 214.8 127.289 214.7 128.188 213C128.788 211.9 129.188 203.7 129.188 194.7C129.188 183 128.888 178.2 127.988 177.2C127.288 176.5 126.488 176 126.188 176.1Z" fill="#FFFFFE"/>
<path fill-rule="evenodd" clip-rule="evenodd" d="M543.544 179.899C549.943 179.899 557.442 180.399 560.342 181.099C564.141 181.899 566.642 183.2 569.241 185.8C571.241 187.8 573.34 191.199 573.94 193.399C574.54 195.599 575.04 201.899 575.04 207.399C575.04 212.899 574.64 219.1 574.04 221.2C573.54 223.2 571.84 226.399 570.341 228.099C568.841 229.799 566.041 231.9 564.041 232.8C561.841 233.7 555.541 234.499 532.045 235.399V179.899H543.544ZM540.044 227.1C557.842 227.1 560.041 226.8 562.041 225.3C563.741 224 565.041 221.5 565.94 218C566.84 214.5 567.241 209.6 566.841 204.1C566.641 199.4 565.841 194.5 565.241 193.3C564.641 192.1 563.041 190.4 561.841 189.5C560.441 188.6 555.942 187.8 550.043 187.4L540.443 186.8L540.044 227.1Z" fill="#FFFFFE"/>
<path fill-rule="evenodd" clip-rule="evenodd" d="M335.566 180.2C346.265 180.5 350.465 181 352.965 182.3C354.665 183.2 356.864 185 357.664 186.2C358.464 187.5 359.464 191 359.864 194C360.364 197.999 360.064 200.8 358.864 204.2C357.465 208.2 356.464 209.3 352.965 211C349.565 212.5 346.465 212.9 329.167 213L328.667 234.5L321.168 235L321.368 179.8L335.566 180.2ZM329.267 196.4L329.167 206C344.065 206 347.365 205.6 348.965 204.5C350.165 203.7 351.465 201.5 351.765 199.7C352.065 198 351.864 194.9 351.364 193C350.764 191.1 349.465 189.101 348.465 188.6C347.465 188.2 342.765 187.6 338.065 187.3L329.467 186.7L329.267 196.4Z" fill="#FFFFFE"/>
<path fill-rule="evenodd" clip-rule="evenodd" d="M382.461 180.099C394.159 180.399 397.36 180.9 400.56 182.5C402.659 183.6 405.058 185.7 405.858 187.2C406.558 188.8 407.158 193.2 407.158 197.5C407.158 204.699 407.058 205.1 403.759 208.5C401.86 210.399 399.66 211.999 398.76 212C397.86 212 397.16 212.3 397.26 212.7C397.262 213.103 399.96 217.902 403.259 223.2C406.458 228.599 409.157 233.398 409.158 234C409.158 234.5 407.257 234.9 400.76 234.5L388.66 213.5H376.662L376.162 235L368.663 234.5L368.463 207.099L368.363 179.8L382.461 180.099ZM383.561 187.1C380.161 187.1 377.061 187.4 376.562 187.7C376.162 188.1 375.862 192.4 375.962 197.2L376.062 206.1C391.959 206.1 395.259 205.6 396.859 204.6C398.759 203.3 399.059 202.2 399.059 197.3C399.059 194.1 398.759 191 398.359 190.3C397.959 189.6 395.759 188.6 393.56 188.1C391.36 187.5 386.86 187.1 383.561 187.1Z" fill="#FFFFFE"/>
<path d="M435.556 179.899C449.751 179.899 454.052 180.2 454.054 181.2C454.054 181.9 453.854 183.4 453.554 184.7C453.154 186.9 452.851 186.899 425.057 186.899V202.899H438.555C451.451 202.899 452.054 203 452.054 204.899C452.054 205.999 451.854 207.599 451.554 208.399C451.154 209.699 448.754 209.899 425.057 209.899V226.899H439.555C447.551 226.899 454.148 227.3 454.153 227.7C454.153 228.101 453.753 229.902 452.554 235L417.058 234.899V179.899H435.556Z" fill="#FFFFFE"/>
<path d="M502.048 179.899C504.245 179.899 506.043 180.199 506.048 180.399C506.048 180.699 502.048 192.3 497.148 206.2C492.25 220.097 488.051 232.196 487.649 233.2C487.249 234.5 485.949 234.9 478.551 235L469.151 208.7C463.953 194.303 459.554 181.904 459.253 181.2C458.953 180.3 460.053 179.899 467.552 179.899L475.051 201.399C479.249 213.295 482.948 222.593 483.25 222.2C483.652 221.794 486.851 212.895 490.449 202.399C493.948 192.002 497.147 182.603 497.448 181.7C497.948 180.401 499.149 179.899 502.048 179.899Z" fill="#FFFFFE"/>
<path d="M603.537 180C619.533 180 622.034 180.2 621.535 181.5C621.335 182.3 621.035 183.9 621.035 185C621.035 186.9 620.433 187 593.038 187V203H606.537C618.133 203 620.034 203.2 619.535 204.5C619.335 205.3 619.035 206.9 619.035 208C619.035 209.9 618.434 210 593.038 210V227L621.535 227.5L621.235 230.5C621.035 232.099 620.735 233.799 620.436 234.2C620.233 234.6 612.231 235 585.039 235V180H603.537Z" fill="#FFFFFE"/>
<path d="M634.334 180C637.433 179.9 638.134 180.801 650.832 199.5C658.131 210.199 664.529 218.998 665.03 219C665.73 218.996 666.03 211.792 666.03 180H674.029L673.529 234.5H670.03C666.631 234.5 666.33 234.1 639.533 195.2L638.533 234.5L631.034 235V180H634.334Z" fill="#FFFFFE"/>
<path d="M718.524 186.5L708.525 187C701.527 187.4 697.727 188 695.827 189.2C693.928 190.4 692.827 192.2 692.327 194.7C692.027 196.8 691.628 203 691.728 208.5C691.728 214 692.227 219.8 692.827 221.5C693.527 223.1 695.227 225.2 696.727 226C698.626 227 702.427 227.5 709.726 227.5C717.323 227.5 720.024 227.8 720.024 228.7C720.024 229.4 719.624 231.1 719.024 232.5C718.125 234.9 717.624 235 710.025 235C705.626 235 699.727 234.4 696.827 233.8C693.228 233 690.628 231.6 688.328 229.3C685.928 226.9 684.829 224.5 683.929 220.2C683.329 217.1 683.029 209.8 683.229 204C683.628 196.3 684.228 192.4 685.628 189.5C686.728 187.4 688.728 184.8 690.027 183.7C691.427 182.7 694.128 181.5 696.027 181C698.028 180.6 703.928 180.1 719.024 180L718.524 186.5Z" fill="#FFFFFE"/>
<path d="M736.022 235H728.023V180H736.022V235Z" fill="#FFFFFE"/>
<path fill-rule="evenodd" clip-rule="evenodd" d="M772.419 180.5L782.718 207.5C788.409 222.278 793.103 234.565 793.017 234.7C793.014 234.9 791.111 234.9 784.617 234.5L778.518 218.899L756.021 219L750.521 235H746.821C744.722 235 743.123 234.6 743.122 234.2C743.126 233.791 747.723 221.394 753.32 206.7L763.52 179.899L772.419 180.5ZM768.119 190.6C767.719 190.1 767.019 190.8 766.419 192.1C765.819 193.401 764.119 197.7 762.72 201.5L762.715 201.512C761.317 205.407 759.919 209.3 759.619 210.3C759.119 211.8 759.92 212 767.519 212C773.818 212 775.918 211.7 775.718 210.8C775.517 210.099 773.818 205.499 772.019 200.5C770.219 195.602 768.42 191.103 768.119 190.6Z" fill="#FFFFFE"/>
<path d="M521.046 234.899H513.047V179.899H521.046V234.899Z" fill="#FFFFFE"/>
<path d="M603.637 167C608.136 167 609.037 167.4 612.437 170.7C614.435 172.799 615.834 174.799 615.536 175.2C615.136 175.6 613.536 176 611.937 176C610.337 176 607.936 174.9 603.037 170.5L600.338 173.2C598.538 175.1 596.638 176 594.438 176C592.639 176 591.039 175.7 590.938 175.3C590.839 174.899 592.439 172.899 594.638 170.8C598.137 167.4 599.138 167 603.637 167Z" fill="#FFFFFE"/>
<path d="M142.688 0.0994602C145.987 -0.000472867 153.387 0.499499 159.186 1.09946C164.985 1.59951 174.384 3.39989 180.184 4.99985C185.983 6.59979 192.082 8.59985 193.682 9.49985C195.281 10.2998 197.082 10.9999 197.682 10.9999C198.283 11.0007 201.182 12.2 204.181 13.5995C207.18 14.9995 213.28 18.3999 217.68 20.9999C222.079 23.7 230.778 30.0995 236.978 35.3993C243.075 40.6973 248.172 45.2971 248.176 45.7C248.177 46.2011 250.277 48.7007 252.676 51.4999C255.176 54.2 259.675 60.1 262.574 64.4998C265.574 68.8998 269.974 76.2999 272.474 80.9998C274.873 85.6996 277.672 91.6998 278.572 94.4998C279.572 97.1997 280.673 100.2 281.173 101C281.573 101.802 283.272 108.101 284.972 115C286.671 121.9 288.572 131.6 289.172 136.5C289.672 141.4 290.172 150.3 290.172 156.2C290.172 162.199 289.772 167.899 289.172 169C288.572 170.099 287.772 170.999 287.172 171C286.572 171 285.572 169.5 284.772 167.7C283.972 166 281.672 162.2 279.572 159.5C277.473 156.7 275.073 153.799 274.273 152.899C273.374 152.099 269.573 148.8 265.674 145.7C261.775 142.601 258.276 140.001 257.675 140C257.075 140 255.975 139.299 255.175 138.599C254.374 137.799 248.475 134.499 242.177 131.3C235.878 128.1 227.878 124.2 224.479 122.7C220.981 121.201 217.882 120.001 217.479 120C216.98 120 214.479 118.9 211.68 117.5C208.98 116.2 205.981 115.1 205.181 115C204.381 115 202.781 114.4 201.681 113.7C200.581 113 197.681 111.799 195.182 111.099C192.682 110.399 188.182 108.9 185.183 107.8C182.183 106.6 178.183 105.099 176.483 104.399C174.684 103.6 172.485 103 171.685 103C170.885 103 169.985 102.6 169.685 102C169.385 101.4 168.384 101 167.484 101C166.484 100.9 163.885 100.1 161.686 98.9998C159.487 97.9003 157.087 97.1004 156.486 96.9998C155.786 96.9998 149.486 94.6998 142.487 91.9998C135.392 89.2012 129.294 87.002 128.689 86.9998C128.09 86.9998 126.589 86.4 125.189 85.7C123.79 84.9001 120.89 83.7998 118.69 82.9998C116.491 82.2999 111.591 80.1996 107.691 78.2997C103.892 76.3997 98.792 73.2993 96.4922 71.3993C93.193 68.7996 92.0927 67.0997 91.5928 64.2C91.1929 61.3004 91.5933 59.6997 93.5928 56.7C94.9928 54.7001 98.0927 51.7995 100.492 50.2997C102.792 48.7997 106.092 46.7992 107.691 45.8993C109.292 45.0992 113.191 43.4997 116.19 42.4999C119.19 41.5999 122.689 40.3993 123.989 39.8993C125.19 39.3992 130.79 38.4995 136.488 37.7997C144.387 36.8997 149.087 36.8997 157.486 37.7997C163.385 38.4996 168.984 39.3993 169.984 39.8993C170.885 40.3993 175.084 41.3999 179.184 41.9999C185.183 42.8998 187.183 42.8996 189.482 41.7997C191.282 40.9996 192.582 39.3995 193.082 37.4999C193.482 35.7999 193.382 33.2993 192.782 31.5995C192.182 29.9996 190.582 27.6999 189.183 26.4999C187.783 25.3999 183.983 23.2999 180.684 21.9999C175.384 19.8999 173.084 19.5995 160.686 19.5995C152.687 19.4995 144.388 20.0997 141.188 20.7997C138.188 21.4996 132.589 22.8001 128.689 23.7C124.79 24.5999 120.191 25.8994 118.49 26.5995C116.691 27.3991 114.891 27.9994 114.49 27.9999C113.989 28.0006 110.59 29.4999 106.691 31.3993C102.892 33.1991 97.8924 35.5993 95.6924 36.5995C93.4926 37.5995 87.7936 40.6995 82.8945 43.3993C78.0962 46.1986 73.3969 48.9989 72.3955 49.4999C71.4957 50.0998 68.6958 51.9 66.1963 53.4999C63.6971 55.1995 60.9968 57.099 60.1963 57.8993C59.3965 58.6991 57.597 59.9993 56.1973 60.8993C54.7975 61.7992 50.7976 64.6994 47.1982 67.3993C43.5987 70.1992 35.599 76.8999 29.2998 82.4998C23.1011 87.9993 16.5023 94.1991 14.8018 96.2997C13.1026 98.2989 11.3027 99.9986 10.7021 99.9998C10.1022 99.9998 10.002 98.7996 10.502 96.7997C10.9024 94.9988 14.1023 87.8991 17.6016 80.9998C21.0012 74.1 26.7003 64.6998 30.2998 59.9999C33.7995 55.2998 40.699 47.3991 45.6982 42.3993C50.5977 37.3994 58.0969 30.8991 62.1963 27.8993C66.2958 24.7994 72.8949 20.5992 76.6943 18.3993C80.4938 16.2993 86.1938 13.5 89.1934 12.2C92.1927 10.9002 95.5923 9.49992 96.6924 8.99985C97.7926 8.49975 100.692 7.39931 103.191 6.59946C105.691 5.89942 110.791 4.49939 114.69 3.59946C118.59 2.69948 125.09 1.59944 129.189 1.09946C133.289 0.599518 139.388 0.199454 142.688 0.0994602Z" fill="#FFFFFE"/>
<path d="M361.863 75.0995C380.659 74.9995 382.161 75.1006 381.661 76.7C381.461 77.7007 380.761 81.2018 378.962 90.4998H361.464C343.967 90.4998 343.965 90.5004 342.065 92.9998C340.966 94.3997 340.067 96.7001 340.066 98.2C340.166 99.7999 340.566 101.9 341.166 103C341.666 104.1 343.666 105.399 345.365 105.899C347.165 106.399 353.165 107.6 358.664 108.5C364.163 109.5 370.462 111 372.662 112C374.862 112.9 377.762 115 379.162 116.599C380.562 118.199 382.362 121.3 383.062 123.5C383.961 126.1 384.261 130.5 383.961 136C383.661 142.299 383.06 145.4 381.461 148C380.361 149.9 377.861 152.5 376.062 153.7C374.161 154.9 369.462 156.599 365.663 157.399C360.864 158.499 352.864 159 339.866 159C322.67 159 321.168 158.8 321.168 157.2C321.168 156.299 321.769 152.698 323.668 143H340.866C351.964 143 358.963 142.599 360.363 141.8C361.663 141.2 362.963 140.199 363.363 139.599C363.763 138.999 364.163 136.699 364.163 134.5C364.163 132.3 363.664 129.7 362.964 128.7C362.064 127.5 357.964 126.299 349.165 124.599C342.266 123.3 334.867 121.5 332.667 120.5C330.467 119.6 327.568 117.9 326.268 116.7C324.968 115.5 323.267 113 322.567 111.2C321.768 109.4 321.168 104.5 321.168 99.7C321.168 94.0005 321.768 90.2997 322.968 87.4998C323.968 85.2999 326.567 82.0998 328.667 80.4998C330.767 78.8 334.567 76.9996 337.066 76.2997C339.867 75.5997 349.766 75.0995 361.863 75.0995Z" fill="#FFFFFE"/>
<path d="M424.656 74.9998C441.437 74.9998 455.126 75.1001 455.153 75.2C455.153 75.4039 454.653 78.2026 454.054 81.4998C453.554 84.7991 452.854 88.2992 452.554 89.2C452.154 90.7997 450.35 90.9998 413.158 90.9998L413.658 107.5L432.355 107.7C449.551 108 451.153 108.101 451.054 109.7C451.054 110.701 450.453 114.202 448.554 123.5L413.158 124V142H434.655C454.65 142 456.153 142.101 455.653 143.7C455.453 144.701 454.753 148.2 454.153 151.5C453.554 154.798 452.854 157.798 452.554 158.2C452.347 158.7 439.044 159 394.16 159V74.9998H424.656Z" fill="#FFFFFE"/>
<path fill-rule="evenodd" clip-rule="evenodd" d="M489.949 75.2C512.946 75.5 513.847 75.5999 519.146 77.9998C522.146 79.4998 525.545 81.8999 526.745 83.4998C527.945 85.1998 529.446 88.2999 530.146 90.4998C530.945 92.9999 531.245 98 531.045 104.099C530.645 112.299 530.244 114.2 528.045 117.599C526.645 119.699 523.746 122.599 521.546 123.899C519.447 125.298 517.448 126.498 517.146 126.599C516.847 126.799 520.846 133.9 525.846 142.5C530.943 150.996 535.14 158.193 535.145 158.5C535.142 158.8 530.44 159 514.146 159L498.349 129.5L485.15 129L484.65 158.5L466.152 159L466.353 74.7997L489.949 75.2ZM485.149 114C506.947 113.5 507.447 113.4 509.747 110.7C511.747 108.5 512.146 106.9 512.146 102C512.146 96.9001 511.747 95.5997 509.647 93.4998C507.248 91.0998 506.547 90.9998 496.148 90.9998H485.149V114Z" fill="#FFFFFE"/>
<path d="M641.633 158.5L622.135 159V74.9998H642.133L641.633 158.5Z" fill="#FFFFFE"/>
<path fill-rule="evenodd" clip-rule="evenodd" d="M678.929 75.2C701.126 75.5 702.927 75.6997 707.626 77.7997C710.326 79.0996 713.425 80.8997 714.425 81.7997C715.425 82.7996 717.225 85.2999 718.425 87.4998C720.124 90.7996 720.524 93.3005 720.524 102C720.624 111.299 720.324 113.1 718.125 117.5C716.625 120.4 714.125 123.499 712.125 124.8C710.125 126.1 706.326 127.799 703.626 128.599C700.426 129.499 694.127 130 674.13 130V159H655.132L655.231 116.899V74.8993L678.929 75.2ZM674.129 115C686.128 115 691.427 114.5 693.627 114C695.827 113.5 698.426 112.1 699.426 110.8C700.726 109.1 701.226 106.8 701.126 102.2C701.126 96.9 700.726 95.5998 698.626 93.4998C696.226 91.1 695.526 90.9998 685.128 90.9998H674.129V115Z" fill="#FFFFFE"/>
<path d="M791.616 79.2C791.316 81.4999 790.717 85.0002 789.617 90.3993L751.221 90.8993V107.899H769.719C781.312 107.899 788.211 108.3 788.217 108.899C788.217 109.499 787.617 113.1 785.717 124L751.221 123.899V141.899H793.217L792.717 144.2C792.517 145.4 791.716 149.301 789.717 159L731.223 158.899V74.8993H792.217L791.616 79.2Z" fill="#FFFFFE"/>
<path d="M607.637 77.2997C607.437 78.4997 606.736 82.1004 605.137 90.9998H588.639C576.141 90.9998 571.24 91.4 568.641 92.4998C566.541 93.3998 564.442 95.3 563.542 97.2997C562.442 99.3996 561.742 104.3 561.342 111.5C561.042 117.6 561.342 125.7 561.941 129.5C562.841 134.7 563.742 137.2 565.642 139C567.941 141.4 568.942 141.5 591.139 142V127H584.64C578.44 127 578.14 126.9 578.54 124.8C578.74 123.499 579.44 119.899 581.14 111L610.637 111.5V130.5C610.637 140.998 610.237 150.798 609.837 152.3C609.437 153.899 607.736 155.7 605.837 156.8C603.137 158.2 599.937 158.5 585.139 158.5C570.841 158.4 566.441 158 561.142 156.5C556.742 155.1 553.342 153.3 550.343 150.5C547.443 147.9 545.244 144.6 543.844 141C542.044 136.2 541.744 133.299 541.644 117.5C541.644 102.2 541.944 98.6997 543.544 93.9998C544.644 90.9999 547.143 86.7993 549.043 84.5995C551.043 82.4996 553.843 80.1992 555.343 79.3993C556.843 78.5993 560.443 77.3993 563.342 76.5995C567.042 75.5996 574.543 75.0998 608.137 74.9998L607.637 77.2997Z" fill="#FFFFFE"/>
<path d="M132.389 139.899C136.088 135.9 136.388 135.7 140.987 136.3C143.987 136.7 146.488 137.7 147.987 139.2C149.687 140.9 150.186 142.601 150.187 146.2C150.186 150.399 149.786 151.3 146.688 154C144.388 156 142.088 157 139.988 157C138.189 157 135.488 156.1 133.988 155C132.388 153.9 130.488 151.6 129.688 150C128.889 148.3 128.289 146.3 128.389 145.5C128.489 144.699 130.289 142.199 132.389 139.899Z" fill="#FFFFFE"/>
<path d="M181.684 111.7C182.783 111.5 184.284 111.4 184.983 111.599C185.583 111.799 186.483 111.999 186.982 111.899C187.384 111.9 189.383 113.401 191.382 115.2C194.881 118.3 195.182 118.9 195.182 124.2C195.182 129.299 194.881 130.3 192.482 132.3C190.883 133.6 188.382 134.999 186.683 135.399C184.983 135.799 182.183 135.699 180.184 135.099C178.284 134.499 175.984 133.3 175.084 132.3C174.184 131.3 172.984 129.1 172.484 127.5C171.685 125.3 171.784 123.4 172.784 120.5C173.584 118.3 174.684 116.199 175.384 115.899C176.084 115.499 177.384 114.599 178.184 113.8C178.984 112.9 180.584 112 181.684 111.7Z" fill="#FFFFFE"/>
<path d="M93.6934 98.0995C94.2949 98.0005 96.5938 98.8006 98.9922 99.7C102.292 101.1 103.792 102.4 105.292 105.5C106.292 107.7 107.191 110.5 107.191 111.7C107.191 113 106.491 115.6 105.691 117.5C104.891 119.4 102.692 121.9 100.992 123C99.1925 124.1 96.0922 125 94.1924 125C92.2927 125 89.3931 124.2 87.6934 123.2C86.0935 122.2 83.5938 119.599 82.2939 117.399C80.4944 114.5 80.0949 112.7 80.5947 110.5C80.9948 108.8 82.3946 106 83.6943 104.2C84.9943 102.4 87.5939 100.3 89.3936 99.4998C91.1932 98.7999 93.1935 98.0995 93.6934 98.0995Z" fill="#FFFFFE"/>
</svg>
