<svg width="290" height="309" viewBox="0 0 290 309" fill="none" xmlns="http://www.w3.org/2000/svg">
<path fill-rule="evenodd" clip-rule="evenodd" d="M114.089 135.413V152.913C113.989 163.713 114.389 171.013 115.089 171.913C115.888 173.013 116.288 173.113 116.588 172.113C116.788 171.414 117.488 170.913 117.988 170.913C118.589 170.912 120.688 169.613 122.787 168.113C124.787 166.613 128.287 164.513 130.387 163.413C133.086 162.013 136.186 161.413 139.886 161.513C143.585 161.613 146.885 162.413 149.484 163.813C151.684 165.013 154.385 166.513 155.484 167.213C156.584 167.813 157.683 168.613 157.983 168.913C158.283 169.213 159.683 170.213 161.283 171.213C162.783 172.113 164.183 172.513 164.483 172.113C164.783 171.71 164.683 167.111 164.383 161.913C163.883 153.714 164.083 151.913 165.783 148.913C166.783 147.013 169.182 144.613 171.082 143.613C173.782 142.314 177.083 141.913 198.979 141.913L202.479 145.113C204.878 147.313 206.378 149.813 207.078 152.913C207.678 155.413 208.378 158.713 208.678 160.413C208.978 162.014 210.278 169.714 211.578 177.413C213.378 188.211 213.677 191.612 212.678 192.113C211.978 192.513 209.878 192.913 207.979 192.913C204.479 192.913 204.478 192.813 203.278 187.213C202.578 184.013 201.379 178.613 200.779 175.113C199.78 170.314 199.079 168.914 197.779 168.913C196.38 168.913 195.88 170.014 195.38 174.113C195.08 177.015 195.079 194.714 195.279 213.413C195.479 232.112 196.08 248.711 196.479 250.413C197.079 252.813 196.679 254.013 194.38 256.813C192.78 258.712 188.78 261.513 185.48 263.113C182.182 264.613 179.183 265.912 178.781 265.913C178.281 265.913 176.482 266.513 174.782 267.313C172.983 268.013 167.883 269.513 163.483 270.513C157.184 272.013 151.584 272.413 137.486 272.413C123.388 272.313 117.887 271.913 111.988 270.513C107.889 269.513 103.191 268.113 101.49 267.413C99.8906 266.713 96.2908 265.313 93.4912 264.413C90.7919 263.513 86.6922 262.513 84.4922 262.213C81.1928 261.713 79.9916 262.114 77.4922 264.113C74.493 266.613 74.4928 266.613 76.1924 270.013C77.0923 271.913 78.8925 274.413 80.1924 275.613C81.4924 276.813 84.2917 278.813 86.4912 279.913C88.691 281.113 93.1907 282.813 96.4902 283.813C99.7899 284.813 104.79 286.313 107.489 287.013C110.989 288.013 118.788 288.413 133.486 288.413C150.484 288.413 155.784 288.013 161.483 286.613C165.383 285.613 172.582 283.413 177.481 281.713C182.481 280.013 188.481 277.813 190.98 276.713C193.481 275.713 199.78 272.713 204.979 270.113C210.178 267.613 218.277 263.212 222.977 260.313C227.676 257.513 233.976 253.412 237.075 251.313C240.075 249.112 245.874 244.913 249.773 241.913C253.773 238.913 261.272 232.013 266.472 226.613C271.67 221.314 276.17 217.314 276.471 217.913C276.77 218.414 274.97 222.914 272.471 227.913C269.971 232.813 266.771 238.813 265.271 241.113C263.872 243.513 260.672 248.113 258.173 251.413C255.673 254.713 249.574 261.513 244.574 266.613C239.575 271.713 231.876 278.513 227.477 281.713C223.077 284.913 217.878 288.513 215.978 289.613C214.078 290.813 208.878 293.513 204.479 295.713C200.08 297.913 193.98 300.412 190.98 301.313C187.981 302.312 184.581 303.413 183.48 303.913C182.38 304.313 177.481 305.513 172.482 306.513C165.583 308.013 159.083 308.413 143.985 308.413C128.687 308.413 122.787 308.013 116.488 306.613C112.089 305.613 107.59 304.413 106.489 303.913C105.389 303.513 102.49 302.613 99.9902 301.913C97.4906 301.213 91.8907 298.913 87.4912 296.813C83.0922 294.713 77.6933 291.914 75.4932 290.613C73.2935 289.413 68.3937 286.213 64.4941 283.713C60.6946 281.113 53.6956 275.313 48.9961 270.713C44.2969 266.113 38.5975 260.413 36.3975 257.913C34.0978 255.413 31.1978 251.613 29.7979 249.413C28.398 247.213 26.6983 244.713 25.8984 243.813C25.0985 243.013 23.5985 240.713 22.5986 238.813C21.4986 236.912 18.2989 230.713 15.3994 224.913C12.5998 219.113 8.89964 210.113 7.2998 204.913C5.60006 199.713 3.80054 193.113 3.10059 190.413C2.50066 187.613 1.60089 181.613 1.00098 176.913C0.501049 172.213 6.75422e-06 164.713 0 151.913L7.2998 158.413C11.1983 161.912 14.7973 164.812 15.2988 164.913C15.6998 164.914 17.4998 165.914 19.2988 167.213C20.9989 168.513 28.9981 172.813 36.9971 176.713C44.9961 180.513 53.4954 184.613 55.9951 185.713C58.4948 186.813 61.5944 188.013 62.9941 188.413C64.3945 188.813 68.694 190.713 72.4932 192.513C76.3926 194.313 80.892 195.813 85.4912 195.913L84.6914 189.613C84.2915 186.213 83.9922 177.012 83.9922 154.913H81.4922C80.0927 154.913 78.7933 155.414 78.5928 156.113C78.3927 156.814 77.8921 159.614 77.4922 162.413C77.1922 165.113 76.4921 168.713 75.9922 170.413C75.5923 172.013 74.8928 174.613 74.5928 176.113C73.9929 178.713 73.6919 178.913 69.793 178.613C65.5939 178.413 65.4938 178.313 65.5938 174.913C65.594 173.012 67.0939 163.712 68.8936 154.413C71.0265 143.081 72.8265 136.314 74.293 134.113C75.393 132.313 77.7929 130.113 79.3926 129.413C81.4927 128.413 86.3937 128.013 105.989 127.913L114.089 135.413ZM152.684 175.913C152.483 175.914 151.784 176.414 150.984 177.113C149.884 178.113 149.584 182.414 149.784 199.814C149.884 211.713 150.384 221.914 150.784 222.514C151.185 223.114 152.884 224.314 154.483 225.314C156.183 226.214 160.683 228.014 164.482 229.314C168.381 230.613 171.78 231.513 172.281 231.314C172.681 231.114 172.981 220.713 172.981 208.113V185.413C167.982 182.913 164.282 181.214 161.482 180.014C158.783 178.814 155.683 177.414 154.783 176.814C153.783 176.314 152.884 175.913 152.684 175.913ZM125.986 176.014C125.685 176.015 123.486 177.114 120.987 178.514C118.488 179.814 115.188 181.214 113.688 181.514C112.189 181.814 109.989 183.313 108.889 184.713C108.228 185.621 107.772 186.495 107.472 187.7C107.66 186.588 107.929 185.79 108.289 185.213C109.089 183.914 109.388 182.914 109.089 182.913C108.689 182.913 107.789 183.413 106.989 184.113C105.889 185.013 105.589 187.813 105.789 195.613C105.889 201.312 106.289 206.112 106.688 206.314C107.002 206.439 107.197 204.87 107.25 202.373C107.399 204.046 107.594 205.221 107.789 205.514C108.19 206.114 109.889 207.214 111.488 208.113C113.188 208.913 116.088 210.313 117.987 211.213C119.887 212.113 122.687 213.313 124.287 213.913C126.587 214.713 127.086 214.613 127.986 212.913C128.586 211.813 128.986 203.613 128.986 194.613C128.986 182.913 128.686 178.113 127.786 177.113C127.086 176.413 126.286 175.914 125.986 176.014Z" fill="#FFFFFE"/>
<path d="M142.485 0.0127903C145.785 -0.0871428 153.184 0.412829 158.983 1.01279C164.783 1.51284 174.182 3.31322 179.981 4.91318C185.781 6.51312 191.88 8.51318 193.479 9.41318C195.079 10.2131 196.88 10.9132 197.479 10.9132C198.081 10.914 200.98 12.1133 203.979 13.5128C206.978 14.9129 213.078 18.3132 217.478 20.9132C221.877 23.6134 230.576 30.0128 236.775 35.3126C242.872 40.6106 247.97 45.2104 247.974 45.6134C247.975 46.1145 250.075 48.6141 252.474 51.4132C254.973 54.1133 259.472 60.0133 262.372 64.4132C265.372 68.8131 269.772 76.2132 272.271 80.9132C274.671 85.613 277.47 91.6131 278.37 94.4132C279.37 97.113 280.471 100.113 280.971 100.913C281.371 101.715 283.07 108.014 284.77 114.913C286.469 121.813 288.37 131.513 288.97 136.413C289.47 141.313 289.97 150.213 289.97 156.113C289.97 162.112 289.569 167.812 288.97 168.913C288.37 170.013 287.57 170.913 286.97 170.913C286.37 170.913 285.37 169.413 284.57 167.613C283.77 165.913 281.47 162.113 279.37 159.413C277.27 156.613 274.871 153.713 274.071 152.813C273.171 152.013 269.371 148.713 265.472 145.613C261.573 142.514 258.074 139.915 257.473 139.913C256.873 139.913 255.772 139.213 254.973 138.513C254.172 137.712 248.273 134.413 241.975 131.213C235.676 128.013 227.676 124.113 224.276 122.613C220.779 121.114 217.68 119.914 217.277 119.913C216.777 119.913 214.277 118.813 211.478 117.413C208.778 116.113 205.779 115.014 204.979 114.913C204.179 114.913 202.578 114.313 201.479 113.613C200.379 112.913 197.479 111.713 194.979 111.013C192.48 110.313 187.98 108.813 184.98 107.713C181.981 106.513 177.981 105.013 176.281 104.313C174.482 103.513 172.283 102.914 171.482 102.913C170.683 102.913 169.782 102.513 169.482 101.913C169.182 101.313 168.182 100.913 167.282 100.913C166.282 100.813 163.683 100.013 161.483 98.9132C159.285 97.8136 156.885 97.0137 156.284 96.9132C155.584 96.9132 149.284 94.6131 142.285 91.9132C135.189 89.1146 129.092 86.9153 128.487 86.9132C127.887 86.9132 126.387 86.3133 124.987 85.6134C123.588 84.8134 120.688 83.7132 118.488 82.9132C116.289 82.2132 111.389 80.1129 107.489 78.213C103.69 76.313 98.5898 73.2126 96.29 71.3126C92.9909 68.7129 91.8906 67.013 91.3906 64.1134C90.9908 61.2137 91.3912 59.613 93.3906 56.6134C94.7906 54.6134 97.8905 51.7129 100.29 50.213C102.59 48.713 105.89 46.7125 107.489 45.8126C109.09 45.0125 112.989 43.413 115.988 42.4132C118.988 41.5132 122.487 40.3126 123.787 39.8126C124.988 39.3125 130.588 38.4129 136.286 37.713C144.185 36.8131 148.885 36.813 157.284 37.713C163.183 38.4129 168.782 39.3126 169.782 39.8126C170.683 40.3126 174.882 41.3132 178.981 41.9132C184.98 42.8131 186.981 42.8129 189.28 41.713C191.08 40.9129 192.38 39.3129 192.88 37.4132C193.28 35.7132 193.18 33.2126 192.58 31.5128C191.98 29.9129 190.38 27.6132 188.98 26.4132C187.581 25.3132 183.781 23.2132 180.481 21.9132C175.182 19.8132 172.882 19.5128 160.483 19.5128C152.485 19.4128 144.185 20.013 140.985 20.713C137.986 21.4129 132.387 22.7134 128.487 23.6134C124.588 24.5133 119.988 25.8127 118.288 26.5128C116.489 27.3125 114.689 27.9127 114.288 27.9132C113.787 27.914 110.388 29.4132 106.489 31.3126C102.69 33.1124 97.6903 35.5126 95.4902 36.5128C93.2905 37.5128 87.5915 40.6128 82.6924 43.3126C77.894 46.1119 73.1947 48.9122 72.1934 49.4132C71.2935 50.0131 68.4937 51.8133 65.9941 53.4132C63.4949 55.1128 60.7947 57.0123 59.9941 57.8126C59.1944 58.6124 57.3948 59.9126 55.9951 60.8126C54.5954 61.7125 50.5955 64.6128 46.9961 67.3126C43.3966 70.1125 35.3969 76.8133 29.0977 82.4132C22.899 87.9126 16.3001 94.1124 14.5996 96.213C12.9004 98.2122 11.1006 99.9119 10.5 99.9132C9.90007 99.9132 9.79988 98.7129 10.2998 96.713C10.7003 94.9121 13.9002 87.8125 17.3994 80.9132C20.799 74.0133 26.4981 64.6131 30.0977 59.9132C33.5974 55.2131 40.4968 47.3124 45.4961 42.3126C50.3956 37.3127 57.8948 30.8125 61.9941 27.8126C66.0937 24.7127 72.6928 20.5125 76.4922 18.3126C80.2917 16.2127 85.9916 13.4133 88.9912 12.1134C91.9905 10.8135 95.3902 9.41325 96.4902 8.91318C97.5905 8.41308 100.49 7.31264 102.989 6.51279C105.489 5.81275 110.589 4.41272 114.488 3.51279C118.388 2.61281 124.888 1.51277 128.987 1.01279C133.087 0.512848 139.186 0.112784 142.485 0.0127903Z" fill="#FFFFFE"/>
<path d="M132.187 139.813C135.885 135.813 136.186 135.613 140.785 136.213C143.785 136.613 146.285 137.613 147.785 139.113C149.485 140.813 149.984 142.514 149.984 146.113C149.984 150.313 149.584 151.214 146.485 153.913C144.186 155.913 141.886 156.913 139.786 156.913C137.986 156.913 135.286 156.013 133.786 154.913C132.186 153.813 130.286 151.513 129.486 149.913C128.687 148.213 128.087 146.213 128.187 145.413C128.287 144.613 130.087 142.112 132.187 139.813Z" fill="#FFFFFE"/>
<path d="M181.481 111.613C182.581 111.413 184.081 111.313 184.781 111.513C185.381 111.713 186.28 111.912 186.78 111.813C187.181 111.814 189.181 113.314 191.18 115.113C194.679 118.213 194.979 118.814 194.979 124.113C194.979 129.212 194.679 130.213 192.28 132.213C190.681 133.513 188.18 134.912 186.48 135.313C184.781 135.713 181.981 135.613 179.981 135.013C178.082 134.413 175.782 133.213 174.882 132.213C173.982 131.213 172.782 129.013 172.282 127.413C171.482 125.213 171.582 123.313 172.582 120.413C173.382 118.213 174.482 116.113 175.182 115.813C175.882 115.412 177.182 114.513 177.981 113.713C178.782 112.813 180.382 111.913 181.481 111.613Z" fill="#FFFFFE"/>
<path d="M93.4912 98.0128C94.0927 97.9139 96.3917 98.7139 98.79 99.6134C102.089 101.013 103.59 102.313 105.09 105.413C106.09 107.613 106.989 110.413 106.989 111.613C106.989 112.913 106.289 115.513 105.489 117.413C104.689 119.313 102.49 121.813 100.79 122.913C98.9904 124.013 95.8901 124.913 93.9902 124.913C92.0905 124.913 89.1909 124.113 87.4912 123.113C85.8914 122.113 83.3917 119.513 82.0918 117.313C80.2923 114.413 79.8927 112.613 80.3926 110.413C80.7927 108.713 82.1925 105.913 83.4922 104.113C84.7922 102.313 87.3918 100.213 89.1914 99.4132C90.991 98.7133 92.9913 98.0128 93.4912 98.0128Z" fill="#FFFFFE"/>
</svg>
